<svg class="w-6 h-6" viewBox="0 0 524 562" fill="none" xmlns="http://www.w3.org/2000/svg" shape-rendering="geometricPrecision">
    <path d="M349.14 117.06C349.14 180.56 347.21 242.14 286.61 261.38C253.89 271.96 229.83 271.01 209.62 256.58C149.97 214.24 129.78 185.37 106.67 148.81C82.4899 109.76 88.8699 87.7701 80.6299 84.6201C131.51 32.7901 202.35 0.660156 280.7 0.660156C286.53 0.660156 292.33 0.830154 298.06 1.22015C300.64 5.12015 304.25 9.68015 308.71 15.0901C326.99 38.1801 349.13 79.5502 349.13 117.06H349.14Z"
          shape-rendering="geometricPrecision" fill="black"/>
    <path d="M523.64 140.95C503.24 143.63 473.86 150.41 447.26 167.08C414.57 187.29 391.46 210.37 378 210.37C374.15 210.37 367.42 207.49 367.42 198.84C367.42 187.29 372.22 167.08 372.22 120.9C372.22 74.7196 351.06 32.3796 333.73 10.2496C332.29 8.36965 330.88 6.58965 329.49 4.88965C412.5 19.4396 482.92 70.5197 523.64 140.94V140.95Z"
          shape-rendering="geometricPrecision" fill="black"/>
    <path d="M410.03 529.78C371.34 549.97 327.36 561.35 280.71 561.35C125.89 561.35 0.359863 435.83 0.359863 281C0.359863 211.4 25.7099 147.75 67.7199 98.7305C67.3799 101.24 67.2299 103.9 67.2299 106.48C67.2299 137.27 87.4399 166.13 108.6 192.09C162.48 259.45 222.13 278.68 225.98 305.64C227.91 321.02 169.23 410.49 154.8 424.92C140.37 439.35 120.16 449.93 120.16 449.93C120.16 454.76 128.81 463.41 139.39 460.53C149.97 457.63 170.18 441.27 170.18 441.27C170.18 462.45 152.87 477.84 150.95 481.69C158.63 487.47 172.11 485.54 182.69 472.06C194.25 457.63 197.12 430.69 210.6 417.23C226.96 400.87 253.9 397.97 282.76 397.97C342.41 397.97 366.45 439.34 393.39 498.04C397.9 508.55 403.46 519.57 410.04 529.76L410.03 529.78Z"
          shape-rendering="geometricPrecision" fill="black"/>
</svg>
